<svg width="2048" height="2048" viewBox="0 0 2048 2048" fill="none" xmlns="http://www.w3.org/2000/svg">
<path d="M1760 1268.29C1760 1714.41 1390.56 2073.24 944.464 2046.61C485.957 2019.23 172.01 1578.28 231.149 1117.37C266.924 836.965 398.344 596.516 541.446 410.075C566.27 377.522 591.821 639.429 617.377 610.574C642.933 580.978 880.216 170.366 962.721 26.0965C978.052 -0.537726 1013.09 -8.67559 1037.92 10.5602C1203.65 135.593 1760 605.395 1760 1268.29Z" fill="#FF6723"/>
<path d="M1541 1452.01C1541 1747.7 1283.42 1985.39 970.121 1974.65C631.966 1963.19 399.998 1653.9 449.705 1335.31C521.253 878.539 990.456 585 990.456 585C990.456 585 1541 929.369 1541 1452.01Z" fill="#FFB02E"/>
</svg>
