<svg width="1785" height="1785" viewBox="0 0 1785 1785" fill="none" xmlns="http://www.w3.org/2000/svg">
<path d="M281.247 1344.11C129.37 961.379 364.779 541.693 501.468 379.691L562.218 554.349L896.347 0C1238.07 273.378 1619.48 759.383 1541.82 1207.42C1448.37 1746.58 982 1780.77 896.347 1784.55C837.819 1787.13 456.025 1784.55 281.247 1344.11Z" fill="#FF6722"/>
<path d="M415.802 1108.7C440.102 786.72 744.867 508.786 894.213 410.067C1228.34 665.219 1332.12 916.322 1342.25 1009.98C1365.03 1096.04 1381.74 1300.06 1266.31 1427.64C1122.03 1587.11 977.745 1602.3 894.213 1609.89C810.681 1617.49 385.426 1511.17 415.802 1108.7Z" fill="#FFAF2D"/>
</svg>
